<?xml version="1.0" encoding="UTF-8"?>
<svg id="Capa_1" xmlns="http://www.w3.org/2000/svg" version="1.1" viewBox="0 0 211.7 223.9">
  <!-- Generator: Adobe Illustrator 30.1.0, SVG Export Plug-In . SVG Version: 2.1.1 Build 65)  -->
  <defs>
    <style>
      .st0 {
        fill: #fff;
      }

      .st1 {
        fill: #e21a1d;
      }
    </style>
  </defs>
  <path class="st1" d="M114.2,16.8c-3.8,1-7,2.4-9.4,5.4-2.5,2.9-3.9,6.4-3.9,10.4v70.7c0,8.5-6.4,15.9-15,15.9h-17.3c-7.8,0-15-6.9-15-15V23.8c0-4.3,4.2-7.1,8-7s7.7,3,7.7,7.3l.2,72.4c0,3.9,3.7,7,7.3,7.1s8.5-3.6,8.5-8.4V24.4c0-4.1,3.4-7.6,7.4-7.6h21.6Z"/>
  <path class="st1" d="M108.8,55.7c0-3.7,3.6-7.3,7.2-7.3h16.8c3.3-.2,6.3-2.6,7.2-5.7s.3-5.2-1.4-7.3-3.8-3-6.5-3h-23.3c-.1-8.5,7-15.6,15.4-15.6h16.8c8.2,0,15,6.9,15,15.1v17.3c0,8.1-6.9,14.4-14.8,14.9h-17.3c-7.6.1-13.4,5.7-15.1,13.1v-21.4Z"/>
  <path class="st1" d="M132.2,103.5h16.7c4.3.1,7.5,4,7.4,8.1s-3.4,7.7-7.7,7.7h-24.6c-8.8,0-15.4-7.6-15.4-16.2v-16.2c.1-7.7,6.6-14.9,14.6-14.9h25.4c3.8-.1,6.9,2.9,7.5,6.6s-2.7,9-7.3,9.1h-16.8c-4.3.1-7.5,3.8-7.6,7.9s3.2,8,7.6,8Z"/>
  <rect class="st1" x="21.1" y="123.5" width="166.3" height="5"/>
  <polygon points="85.1 162.9 62.4 162.9 62.4 158.3 77.3 140.8 62.8 140.8 62.8 135.5 85.1 135.5 85.1 140.1 70.2 157.6 85.1 157.6 85.1 162.9"/>
  <path d="M70.9,200.4c-1.5.6-3.1,1.1-4.7,1.1h-5.5s0,8.2,0,8.2h-6s0-27.4,0-27.4h11c1.5,0,3,.2,4.3.6,3.9,1.3,6.1,4.9,6.1,9s-1.7,6.9-5.2,8.4ZM70,191.6c-.1-2.1-1.7-3.7-3.8-3.7h-5.5c0,0,0,8.3,0,8.3,1.9,0,3.6,0,5.3,0s4.2-2,4-4.5Z"/>
  <path d="M102.2,163.1c-3,.7-6,.3-8.5-1.1s-5.6-5.7-5.5-9.7,2.4-7.6,6.2-9.4,7.8-1.5,11.2.5,5.8,6.7,5,11.2-3.9,7.5-8.4,8.5ZM105.1,152.6c0-3.1-2.5-5.6-5.6-5.6s-5.6,2.5-5.6,5.6,2.5,5.6,5.6,5.6,5.6-2.5,5.6-5.6Z"/>
  <path d="M116.6,209.9c-3,.7-6,.3-8.5-1.1s-5.6-5.7-5.5-9.7,2.4-7.6,6.2-9.4,7.8-1.5,11.2.5c4,2.3,5.8,6.7,5,11.2-.7,4-3.9,7.5-8.4,8.5ZM119.5,199.4c0-3.1-2.5-5.6-5.6-5.6s-5.6,2.5-5.6,5.6,2.5,5.6,5.6,5.6,5.6-2.5,5.6-5.6Z"/>
  <path d="M158.2,209.9c-3,.7-6,.3-8.5-1.1s-5.6-5.7-5.5-9.7,2.4-7.6,6.2-9.4,7.8-1.5,11.2.5,5.8,6.7,5,11.2-3.9,7.5-8.4,8.5ZM161,199.4c0-3.1-2.5-5.6-5.6-5.6s-5.6,2.5-5.6,5.6,2.5,5.6,5.6,5.6,5.6-2.5,5.6-5.6Z"/>
  <path d="M143.1,163.1c-3.2-.7-5.1-3.3-5-6.5s1.6-5,4.3-5.9,6.1-.8,9.1.2c.3-2.1-1-3.7-3-4s-4.7.2-7.1,1l-1.5-4.5c3.6-1.6,7.5-2.1,11.3-1.3s6,3.4,6,6.9v13.9c.1,0-5.6,0-5.6,0v-1.9c-2.5,2.3-5.4,2.8-8.5,2.1ZM149.2,158.9c1.9-.7,2.8-2.5,2.4-4.4-2.2-1.1-7.1-1.3-7.6,1.6s.2,2.1,1.2,2.7,2.7.6,4,.1Z"/>
  <path d="M120.9,150.8v12.1c0,0-6,0-6,0v-20.9s5.9,0,5.9,0v3c1.8-2.3,4-3.4,6.9-3.2s6.2,2.6,6.3,6.2v14.9c.1,0-5.8,0-5.8,0v-12.2c0-2.1-1.6-3.5-3.6-3.5s-3.6,1.4-3.6,3.6Z"/>
  <path d="M141.3,204.2v4.7c-1.8,1.1-3.7,1.3-5.8,1.2s-5-2.1-5-5.1v-11.2c0,0-2.6,0-2.6,0v-5s2.5,0,2.5,0v-5.3s5.9,0,5.9,0v5.3c0,0,4.9,0,4.9,0v5.1s-4.9,0-4.9,0v9.3c0,.8.7,1.6,1.5,1.7,1.2,0,2.1-.2,3.4-.7Z"/>
  <rect x="92.1" y="181.2" width="5.9" height="28.5"/>
  <rect x="80.1" y="188.8" width="5.9" height="20.9"/>
  <rect x="80" y="181.1" width="6.3" height="5.3"/>
  <path class="st0" d="M70,191.6c.2,2.5-1.6,4.4-4,4.5s-3.4,0-5.3,0v-8.4s5.5,0,5.5,0c2.1,0,3.7,1.6,3.8,3.7Z"/>
  <circle class="st0" cx="99.5" cy="152.6" r="5.6"/>
  <circle class="st0" cx="113.9" cy="199.4" r="5.6"/>
  <circle class="st0" cx="155.4" cy="199.4" r="5.6"/>
  <path class="st0" d="M149.2,158.9c-1.4.5-2.9.5-4-.1s-1.4-1.6-1.2-2.7c.5-3,5.4-2.7,7.6-1.6.4,1.9-.5,3.7-2.4,4.4Z"/>
</svg>